<svg width="9" height="14" viewBox="0 0 9 14" fill="none" xmlns="http://www.w3.org/2000/svg">
<path d="M3.95308 7.43289H3.95375L3.95242 7.42299L3.95242 7.42298L3.95242 7.42297L3.95242 7.42296L3.95242 7.42295L3.95242 7.42294L3.95242 7.42293L3.95239 7.42276L3.95225 7.42165L3.9518 7.41758L3.9514 7.41297C3.95131 7.41172 3.9513 7.41116 3.9513 7.41116L3.9513 4.44595C3.9513 4.12089 4.23748 3.84664 4.59894 3.84664C4.96039 3.84664 5.24658 4.12089 5.24658 4.44595V10.568C5.24658 10.7974 5.44572 10.976 5.67844 10.976C5.91116 10.976 6.1103 10.7974 6.1103 10.568V4.44762C6.1103 3.66215 5.42761 3.03233 4.59894 3.03233C3.77026 3.03233 3.08757 3.66215 3.08757 4.44762V8.31698H3.0869L3.08823 8.32688L3.08823 8.32689L3.08823 8.3269L3.08824 8.32692L3.08824 8.32693L3.08824 8.32693L3.08824 8.32694L3.08826 8.32711L3.0884 8.32823L3.08885 8.3323L3.08926 8.33691C3.08934 8.33815 3.08936 8.33872 3.08936 8.33872L3.08936 11.1507C3.08936 12.4923 4.25738 13.575 5.68201 13.575C7.1067 13.575 8.26357 12.5007 8.27466 11.168V11.1674V4.22285C8.27466 3.2166 7.89812 2.26716 7.21174 1.55194C6.51451 0.824913 5.58689 0.425 4.59894 0.425C2.571 0.425 0.925 2.13094 0.925 4.22285V10.5697C0.925 10.799 1.12414 10.9777 1.35686 10.9777C1.58958 10.9777 1.78872 10.799 1.78872 10.5697V4.22285C1.78872 2.57517 3.05281 1.24098 4.59894 1.24098C5.33957 1.24098 6.03933 1.54505 6.57175 2.09863C7.11289 2.66366 7.41094 3.41744 7.41094 4.22118V11.1637C7.40227 12.0383 6.63063 12.7574 5.68201 12.7574C4.73327 12.7574 3.95308 12.03 3.95308 11.1491V7.43289Z" fill="#E72A5D" stroke="#E72A5D" stroke-width="0.15"/>
</svg>
